<mxfile host="app.diagrams.net" modified="2022-11-24T16:56:18.990Z" agent="5.0 (Windows NT 10.0; Win64; x64) AppleWebKit/537.36 (KHTML, like Gecko) Chrome/106.0.0.0 Safari/537.36 OPR/92.0.0.0 (Edition Yx GX)" etag="X-3igwj9dQxWFeVBZA2b" version="20.6.0" type="github">
  <diagram id="pmI2eMSxqNqzj_WXnPRm" name="Страница 1">
    <mxGraphModel dx="1381" dy="802" grid="1" gridSize="10" guides="1" tooltips="1" connect="1" arrows="1" fold="1" page="1" pageScale="1" pageWidth="1169" pageHeight="1654" math="0" shadow="0">
      <root>
        <mxCell id="0" />
        <mxCell id="1" parent="0" />
        <mxCell id="PReYu3Gvd0J-NVw9nLCL-1" value="ДЗ-1 Часть 2 &quot;Нахождение факториала N!&quot;" style="text;html=1;align=center;verticalAlign=middle;resizable=0;points=[];autosize=1;strokeColor=none;fillColor=none;fontFamily=Courier New;fontSize=14;fontStyle=1" parent="1" vertex="1">
          <mxGeometry x="370" y="40" width="350" height="30" as="geometry" />
        </mxCell>
        <mxCell id="PReYu3Gvd0J-NVw9nLCL-2" value="start" style="ellipse;whiteSpace=wrap;html=1;fontFamily=Courier New;fontSize=14;" parent="1" vertex="1">
          <mxGeometry x="465" y="140" width="120" height="60" as="geometry" />
        </mxCell>
        <mxCell id="PReYu3Gvd0J-NVw9nLCL-9" value="" style="edgeStyle=orthogonalEdgeStyle;rounded=0;orthogonalLoop=1;jettySize=auto;html=1;fontFamily=Courier New;fontSize=14;exitX=0.5;exitY=1;exitDx=0;exitDy=0;" parent="1" source="PReYu3Gvd0J-NVw9nLCL-2" target="PReYu3Gvd0J-NVw9nLCL-8" edge="1">
          <mxGeometry relative="1" as="geometry" />
        </mxCell>
        <mxCell id="PReYu3Gvd0J-NVw9nLCL-12" value="" style="edgeStyle=orthogonalEdgeStyle;rounded=0;orthogonalLoop=1;jettySize=auto;html=1;fontFamily=Courier New;fontSize=14;startArrow=none;" parent="1" source="PReYu3Gvd0J-NVw9nLCL-5" target="PReYu3Gvd0J-NVw9nLCL-11" edge="1">
          <mxGeometry relative="1" as="geometry" />
        </mxCell>
        <mxCell id="PReYu3Gvd0J-NVw9nLCL-8" value="N!" style="shape=parallelogram;perimeter=parallelogramPerimeter;whiteSpace=wrap;html=1;fixedSize=1;fontSize=14;fontFamily=Courier New;" parent="1" vertex="1">
          <mxGeometry x="465" y="250" width="120" height="60" as="geometry" />
        </mxCell>
        <mxCell id="PReYu3Gvd0J-NVw9nLCL-16" style="edgeStyle=orthogonalEdgeStyle;rounded=0;orthogonalLoop=1;jettySize=auto;html=1;entryX=0.5;entryY=0;entryDx=0;entryDy=0;fontFamily=Courier New;fontSize=14;" parent="1" source="PReYu3Gvd0J-NVw9nLCL-11" target="PReYu3Gvd0J-NVw9nLCL-13" edge="1">
          <mxGeometry relative="1" as="geometry" />
        </mxCell>
        <mxCell id="PReYu3Gvd0J-NVw9nLCL-26" value="yes" style="edgeLabel;html=1;align=center;verticalAlign=middle;resizable=0;points=[];fontSize=14;fontFamily=Courier New;" parent="PReYu3Gvd0J-NVw9nLCL-16" vertex="1" connectable="0">
          <mxGeometry x="-0.2519" y="-1" relative="1" as="geometry">
            <mxPoint as="offset" />
          </mxGeometry>
        </mxCell>
        <mxCell id="PReYu3Gvd0J-NVw9nLCL-21" value="" style="edgeStyle=orthogonalEdgeStyle;rounded=0;orthogonalLoop=1;jettySize=auto;html=1;fontFamily=Courier New;fontSize=14;" parent="1" source="PReYu3Gvd0J-NVw9nLCL-11" target="PReYu3Gvd0J-NVw9nLCL-20" edge="1">
          <mxGeometry relative="1" as="geometry" />
        </mxCell>
        <mxCell id="PReYu3Gvd0J-NVw9nLCL-25" value="no" style="edgeLabel;html=1;align=center;verticalAlign=middle;resizable=0;points=[];fontSize=14;fontFamily=Courier New;" parent="PReYu3Gvd0J-NVw9nLCL-21" vertex="1" connectable="0">
          <mxGeometry x="0.2118" y="-2" relative="1" as="geometry">
            <mxPoint x="-12" y="-2" as="offset" />
          </mxGeometry>
        </mxCell>
        <mxCell id="PReYu3Gvd0J-NVw9nLCL-11" value="index &amp;lt; size" style="rhombus;whiteSpace=wrap;html=1;fontSize=14;fontFamily=Courier New;" parent="1" vertex="1">
          <mxGeometry x="440" y="500" width="170" height="80" as="geometry" />
        </mxCell>
        <mxCell id="PReYu3Gvd0J-NVw9nLCL-18" value="" style="edgeStyle=orthogonalEdgeStyle;rounded=0;orthogonalLoop=1;jettySize=auto;html=1;fontFamily=Courier New;fontSize=14;" parent="1" source="PReYu3Gvd0J-NVw9nLCL-13" edge="1">
          <mxGeometry relative="1" as="geometry">
            <mxPoint x="525" y="790" as="targetPoint" />
          </mxGeometry>
        </mxCell>
        <mxCell id="PReYu3Gvd0J-NVw9nLCL-13" value="index = index + 1" style="whiteSpace=wrap;html=1;fontSize=14;fontFamily=Courier New;" parent="1" vertex="1">
          <mxGeometry x="430" y="670" width="190" height="60" as="geometry" />
        </mxCell>
        <mxCell id="PReYu3Gvd0J-NVw9nLCL-15" value="" style="edgeStyle=orthogonalEdgeStyle;rounded=0;orthogonalLoop=1;jettySize=auto;html=1;fontFamily=Courier New;fontSize=14;" parent="1" source="PReYu3Gvd0J-NVw9nLCL-5" target="PReYu3Gvd0J-NVw9nLCL-11" edge="1">
          <mxGeometry relative="1" as="geometry" />
        </mxCell>
        <mxCell id="PReYu3Gvd0J-NVw9nLCL-5" value="size = N!;&lt;br&gt;index = 1;&lt;br&gt;factorial = 1;" style="whiteSpace=wrap;html=1;fontFamily=Courier New;fontSize=14;" parent="1" vertex="1">
          <mxGeometry x="450" y="380" width="150" height="80" as="geometry" />
        </mxCell>
        <mxCell id="PReYu3Gvd0J-NVw9nLCL-14" value="" style="edgeStyle=orthogonalEdgeStyle;rounded=0;orthogonalLoop=1;jettySize=auto;html=1;fontFamily=Courier New;fontSize=14;endArrow=none;" parent="1" source="PReYu3Gvd0J-NVw9nLCL-8" target="PReYu3Gvd0J-NVw9nLCL-5" edge="1">
          <mxGeometry relative="1" as="geometry">
            <mxPoint x="525" y="310" as="sourcePoint" />
            <mxPoint x="525" y="550" as="targetPoint" />
          </mxGeometry>
        </mxCell>
        <mxCell id="PReYu3Gvd0J-NVw9nLCL-19" style="edgeStyle=orthogonalEdgeStyle;rounded=0;orthogonalLoop=1;jettySize=auto;html=1;entryX=0;entryY=0.5;entryDx=0;entryDy=0;fontFamily=Courier New;fontSize=14;exitX=0;exitY=0.5;exitDx=0;exitDy=0;" parent="1" source="PReYu3Gvd0J-NVw9nLCL-27" target="PReYu3Gvd0J-NVw9nLCL-11" edge="1">
          <mxGeometry relative="1" as="geometry">
            <mxPoint x="430" y="820" as="sourcePoint" />
            <Array as="points">
              <mxPoint x="360" y="820" />
              <mxPoint x="360" y="540" />
            </Array>
          </mxGeometry>
        </mxCell>
        <mxCell id="PReYu3Gvd0J-NVw9nLCL-23" value="" style="edgeStyle=orthogonalEdgeStyle;rounded=0;orthogonalLoop=1;jettySize=auto;html=1;fontFamily=Courier New;fontSize=14;" parent="1" source="PReYu3Gvd0J-NVw9nLCL-20" target="PReYu3Gvd0J-NVw9nLCL-22" edge="1">
          <mxGeometry relative="1" as="geometry" />
        </mxCell>
        <mxCell id="PReYu3Gvd0J-NVw9nLCL-20" value="print = factorial" style="shape=document;whiteSpace=wrap;html=1;boundedLbl=1;fontSize=14;fontFamily=Courier New;" parent="1" vertex="1">
          <mxGeometry x="675" y="500" width="175" height="80" as="geometry" />
        </mxCell>
        <mxCell id="PReYu3Gvd0J-NVw9nLCL-22" value="stop" style="ellipse;whiteSpace=wrap;html=1;fontSize=14;fontFamily=Courier New;" parent="1" vertex="1">
          <mxGeometry x="957.5" y="510" width="120" height="60" as="geometry" />
        </mxCell>
        <mxCell id="PReYu3Gvd0J-NVw9nLCL-27" value="factorial = factorial*index" style="whiteSpace=wrap;html=1;fontSize=14;fontFamily=Courier New;" parent="1" vertex="1">
          <mxGeometry x="430" y="790" width="190" height="60" as="geometry" />
        </mxCell>
      </root>
    </mxGraphModel>
  </diagram>
</mxfile>
